<?xml version="1.0" encoding="utf-8"?>
<svg width="116px" height="200px" viewBox="0 0 116 200" version="1.1" xmlns:xlink="http://www.w3.org/1999/xlink" xmlns="http://www.w3.org/2000/svg">
  <g id="question">
    <g id="Qs">
      <path d="M0 0L115.385 0L115.385 200L0 200L0 0Z" id="Back" fill="none" fill-rule="evenodd" stroke="none" />
      <g id="Q1" transform="translate(4.0641174 7.806076)">
        <path d="M6.79985 0.390038C4.33073 1.11263 2.73053 3.10816 1.62373 5.3291C0.470491 7.6421 -0.362882 10.2984 0.159155 12.8943C0.455258 14.3629 1.09842 16.0324 1.91874 17.291C5.47345 22.7429 12.3443 23.4537 17.7904 20.6592C23.4062 17.7769 26.2413 11.0369 21.8925 5.8466C18.6158 1.93514 11.9323 -1.11082 6.79985 0.390038L6.79985 0.390038L6.79985 0.390038ZM15.0813 16.0249C12.0097 17.862 8.17645 17.0737 6.22595 14.0831C4.98151 12.1742 5.18695 9.28675 6.3779 7.43685C7.748 5.31005 10.2708 5.493 12.4227 6.05565C14.034 6.47745 15.5644 7.2564 16.8442 8.32265C20.204 11.1218 18.2915 14.1061 15.0813 16.0249L15.0813 16.0249L15.0813 16.0249Z" transform="translate(11.123535 63.106003)" id="Shape" fill="#000000" fill-opacity="0.49803922" fill-rule="evenodd" stroke="none" />
        <path d="M8.78345 23.8822C10.1017 25.847 12.7124 25.1919 13.5866 23.6533C17.1808 20.7096 24.6313 16.9329 27.0535 23.0228C29.7164 29.7184 21.0748 32.9365 16.0222 33.6239C14.5124 33.8297 13.9581 34.9536 14.0977 36.1045C14.0609 36.3046 14.043 36.5179 14.0513 36.7476C14.3096 43.1843 14.3193 49.6253 14.3202 56.066C14.3202 56.348 14.3672 56.599 14.4325 56.836C14.2907 58.2705 15.1415 59.824 17.0038 59.823C21.0409 59.822 25.0653 59.7815 29.0783 59.286C29.5121 59.2325 29.8878 59.0965 30.2127 58.903C31.4356 58.7735 32.5671 57.9225 32.5671 56.335L32.5671 44.4697C43.4571 37.9299 54.2285 24.3018 48.3261 11.136C40.4661 -6.39286 14.6078 0.321556 1.96471 7.33194C1.22345 7.74299 0.830339 8.33139 0.697249 8.96024C-0.0757449 9.93034 -0.344651 11.3897 0.616194 12.6195C3.47516 16.2741 6.19795 20.0295 8.78345 23.8822L8.78345 23.8822L8.78345 23.8822ZM43.3573 13.1023C49.0119 23.987 37.0021 35.9674 28.5284 40.6043C27.4456 41.1965 27.103 42.1665 27.2355 43.0942C27.2218 43.2138 27.1996 43.3279 27.1996 43.4568L27.1996 54.104C24.6988 54.3305 22.1949 54.4205 19.6839 54.4455C19.6794 49.1125 19.6507 43.7812 19.4708 38.4516C23.9549 37.5188 28.0865 35.4927 30.8541 31.6722C33.1477 28.5071 33.3972 24.1453 31.8302 20.6367C30.2539 17.1097 26.8129 14.8237 23.0056 14.4569C18.7691 14.05 14.8545 15.9242 11.5337 18.4314C9.81175 15.9655 8.01865 13.5528 6.19325 11.1619C16.6666 5.83559 36.6323 0.156195 43.3573 13.1023L43.3573 13.1023L43.3573 13.1023Z" id="Shape#1" fill="#000000" fill-opacity="0.49803922" fill-rule="evenodd" stroke="none" />
      </g>
      <g id="Q2" transform="translate(61.500015 107.49999)">
        <path d="M6.7999 0.39003C4.33076 1.11263 2.73055 3.10812 1.62373 5.32899C0.470489 7.64204 -0.362885 10.2983 0.159157 12.8941C0.455261 14.3627 1.09843 16.0322 1.91875 17.2908C5.4735 22.7426 12.3444 23.4534 17.7905 20.659C23.4063 17.7767 26.2414 11.0368 21.8927 5.84654C18.6159 1.93512 11.9324 -1.11081 6.7999 0.39003L6.7999 0.39003L6.7999 0.39003ZM15.0815 16.0248C12.0098 17.8618 8.17655 17.0736 6.226 14.0829C4.98154 12.1741 5.187 9.28665 6.37795 7.43675C7.74805 5.31 10.2709 5.49295 12.4229 6.0556C14.0341 6.47736 15.5645 7.25635 16.8444 8.32256C20.2041 11.1217 18.2917 14.106 15.0815 16.0248L15.0815 16.0248L15.0815 16.0248Z" transform="translate(11.123611 63.10534)" id="Shape#2" fill="#000000" fill-opacity="0.49803922" fill-rule="evenodd" stroke="none" />
        <path d="M8.78355 23.882C10.1018 25.8468 12.7125 25.1917 13.5867 23.6531C17.181 20.7094 24.6315 16.9328 27.0537 23.0227C29.7167 29.7182 21.075 32.9362 16.0223 33.6236C14.5126 33.8294 13.9583 34.9532 14.0978 36.1041C14.0611 36.3043 14.0431 36.5176 14.0515 36.7473C14.3096 43.1839 14.3195 49.6248 14.3203 56.0655C14.3203 56.3475 14.3673 56.5985 14.4326 56.835C14.2908 58.27 15.1416 59.8235 17.004 59.822C21.041 59.8215 25.0655 59.7805 29.0786 59.2855C29.5123 59.232 29.888 59.096 30.213 58.9025C31.4358 58.7725 32.5673 57.922 32.5673 56.3345L32.5673 44.4693C43.4575 37.9295 54.2285 24.3016 48.3264 11.1359C40.4664 -6.39279 14.6079 0.321571 1.96473 7.33186C1.22346 7.7429 0.830345 8.33136 0.69725 8.96016C-0.0757446 9.93026 -0.344654 11.3896 0.616199 12.6194C3.47518 16.274 6.198 20.0293 8.78355 23.882L8.78355 23.882L8.78355 23.882ZM43.3576 13.1022C49.0122 23.9868 37.0024 35.967 28.5286 40.6039C27.4457 41.1962 27.1032 42.1661 27.2357 43.0937C27.222 43.2134 27.1999 43.3275 27.1999 43.4564L27.1999 54.1035C24.699 54.33 22.1951 54.42 19.684 54.445C19.6795 49.112 19.6508 43.7808 19.4709 38.4512C23.955 37.5185 28.0867 35.4923 30.8543 31.672C33.1479 28.5069 33.3974 24.1451 31.8304 20.6366C30.2541 17.1096 26.813 14.8236 23.0058 14.4568C18.7692 14.0499 14.8546 15.9241 11.5337 18.4313C9.81185 15.9654 8.0187 13.5527 6.19325 11.1619C16.6667 5.83556 36.6324 0.156204 43.3576 13.1022L43.3576 13.1022L43.3576 13.1022Z" id="Shape#3" fill="#000000" fill-opacity="0.49803922" fill-rule="evenodd" stroke="none" />
      </g>
    </g>
  </g>
</svg>