<?xml version="1.0" standalone="no"?>
<!DOCTYPE svg PUBLIC "-//W3C//DTD SVG 20010904//EN"
 "http://www.w3.org/TR/2001/REC-SVG-20010904/DTD/svg10.dtd">
<svg version="1.0" xmlns="http://www.w3.org/2000/svg"
 width="700.000000pt" height="700.000000pt" viewBox="0 0 700.000000 700.000000"
 preserveAspectRatio="xMidYMid meet">
<metadata>
Created by potrace 1.14, written by Peter Selinger 2001-2017
</metadata>
<g transform="translate(0.000000,700.000000) scale(0.100000,-0.100000)"
fill="#000000" stroke="none">
<path d="M3295 6699 c-88 -22 -175 -103 -206 -194 -11 -33 -14 -218 -15 -995
-1 -525 -2 -958 -3 -961 -1 -4 -36 -21 -78 -40 -43 -18 -94 -41 -113 -51 -19
-9 -38 -13 -42 -10 -3 4 -9 32 -12 62 -4 30 -8 69 -11 85 -2 17 -7 50 -10 75
-12 107 -36 293 -50 393 -2 17 -9 75 -15 127 -6 52 -13 111 -16 130 -3 19 -18
143 -35 275 -16 132 -32 251 -34 265 -2 14 -7 52 -10 85 -12 98 -13 102 -26
142 -17 55 -61 115 -107 147 -147 101 -355 49 -431 -107 -29 -61 -35 -123 -21
-219 6 -46 13 -100 16 -120 3 -37 31 -256 39 -313 2 -16 7 -52 10 -80 3 -27 8
-63 10 -80 4 -28 14 -100 20 -155 2 -14 6 -47 9 -75 10 -73 15 -114 21 -165 3
-25 7 -61 10 -80 3 -19 7 -53 10 -75 2 -21 9 -73 15 -115 13 -100 17 -132 35
-285 9 -71 18 -139 20 -151 4 -17 -11 -27 -98 -69 -56 -28 -105 -51 -108 -53
-8 -4 -17 26 -168 563 -161 569 -159 563 -183 616 -26 59 -82 118 -144 149
-62 32 -189 35 -241 7 -55 -29 -103 -78 -129 -130 -50 -97 -48 -158 9 -362 25
-88 100 -353 166 -590 67 -236 151 -533 186 -660 74 -262 89 -312 111 -392 9
-32 25 -87 35 -123 21 -72 110 -390 185 -655 70 -251 109 -318 232 -397 120
-78 34 -73 1147 -75 667 -1 1018 1 1055 8 67 13 151 57 206 107 22 20 63 56
90 79 27 23 67 56 88 75 90 76 273 232 301 257 17 14 75 64 130 111 55 47 111
95 125 107 14 11 124 105 245 208 121 103 234 199 250 214 17 14 72 62 123
105 l93 79 -128 129 c-147 148 -198 180 -297 184 -69 3 -52 11 -586 -273 -41
-22 -133 -71 -205 -108 -71 -37 -134 -71 -140 -75 -5 -5 -26 -15 -46 -23 l-35
-14 2 211 c1 116 4 256 8 311 11 169 15 245 21 365 3 63 8 142 10 175 4 55 9
146 20 350 4 75 9 149 20 335 2 41 7 127 10 190 4 63 8 140 10 170 2 30 6 111
10 180 3 69 8 145 10 170 2 25 6 92 9 150 4 58 9 150 13 205 3 55 5 122 4 150
-7 246 -283 374 -475 220 -40 -32 -81 -94 -95 -143 -5 -16 -12 -78 -15 -138
-4 -60 -9 -138 -11 -174 -7 -113 -15 -252 -20 -345 -12 -227 -16 -285 -20
-350 -3 -38 -7 -117 -10 -175 -10 -175 -14 -243 -17 -245 -2 -1 -46 -5 -98 -9
-52 -3 -104 -8 -115 -10 -12 -2 -51 -7 -88 -11 -51 -5 -67 -3 -68 7 0 7 -1
389 -2 848 -2 826 -2 835 -23 881 -60 130 -205 202 -339 168z"/>
<path d="M1920 1402 c-1 -68 -1 -671 0 -758 l0 -60 1165 0 1165 -1 1 31 c0 38
0 781 0 818 l-1 26 -1165 0 -1165 0 0 -56z"/>
</g>
</svg>
